<svg width="400" height="224" viewBox="0 0 400 224" fill="none" xmlns="http://www.w3.org/2000/svg">
<path d="M191.056 4.47213C196.686 1.65686 203.314 1.65686 208.944 4.47214L364.223 82.1115C378.964 89.482 378.964 110.518 364.223 117.889L208.944 195.528C203.314 198.343 196.686 198.343 191.056 195.528L35.7771 117.889C21.0361 110.518 21.0361 89.4819 35.7771 82.1115L191.056 4.47213Z" fill="#173F5F"/>
<path fill-rule="evenodd" clip-rule="evenodd" d="M100 156.619V199C100 212.807 144.772 224 200 224C255.228 224 300 212.807 300 199V156.619L209.28 204.139C203.468 207.183 196.532 207.183 190.72 204.139L100 156.619Z" fill="#64B6AC"/>
</svg>

