<svg width="424" height="332" viewBox="0 0 424 332" fill="none" xmlns="http://www.w3.org/2000/svg">
<path d="M197.858 14.6421C205.668 6.83165 218.332 6.83165 226.142 14.6421L297.858 86.3579C305.668 94.1683 305.668 106.832 297.858 114.642L226.142 186.358C218.332 194.168 205.668 194.168 197.858 186.358L126.142 114.642C118.332 106.832 118.332 94.1684 126.142 86.3579L197.858 14.6421Z" fill="#64B6AC"/>
<path fill-rule="evenodd" clip-rule="evenodd" d="M77.8578 134.142C85.6683 126.332 98.3316 126.332 106.142 134.142L142 170L192 220L197.858 225.858C205.668 233.668 218.332 233.668 226.142 225.858L232 220L282 170L317.858 134.142C325.668 126.332 338.332 126.332 346.142 134.142L382 170L417.858 205.858C425.668 213.668 425.668 226.332 417.858 234.142L396.142 255.858C388.332 263.668 375.668 263.668 367.858 255.858L346.142 234.142C338.332 226.332 325.668 226.332 317.858 234.142L282 270L232 320L226.142 325.858C218.332 333.668 205.668 333.668 197.858 325.858L192 320L142 270L106.142 234.142C98.3316 226.332 85.6683 226.332 77.8578 234.142L56.142 255.858C48.3316 263.668 35.6683 263.668 27.8578 255.858L6.14205 234.142C-1.66844 226.332 -1.66844 213.668 6.14204 205.858L41.9999 170L77.8578 134.142Z" fill="#173F5F"/>
</svg>
