<!-- <svg width="400" height="224" viewBox="0 0 400 224" fill="none" xmlns="http://www.w3.org/2000/svg">
<path d="M191.056 4.47213C196.686 1.65686 203.314 1.65686 208.944 4.47214L364.223 82.1115C378.964 89.482 378.964 110.518 364.223 117.889L208.944 195.528C203.314 198.343 196.686 198.343 191.056 195.528L35.7771 117.889C21.0361 110.518 21.0361 89.4819 35.7771 82.1115L191.056 4.47213Z" fill="#173F5F"/>
<path fill-rule="evenodd" clip-rule="evenodd" d="M100 156.619V199C100 212.807 144.772 224 200 224C255.228 224 300 212.807 300 199V156.619L209.28 204.139C203.468 207.183 196.532 207.183 190.72 204.139L100 156.619Z" fill="#64B6AC"/>
</svg> -->

<svg width="351" height="274" viewBox="0 0 351 274" fill="none" xmlns="http://www.w3.org/2000/svg">
<path fill-rule="evenodd" clip-rule="evenodd" d="M75 206.62V249.001C75 262.808 119.772 274.001 175 274.001C230.228 274.001 275 262.808 275 249.001V206.62L184.28 254.14C178.468 257.184 171.532 257.184 165.72 254.14L75 206.62Z" fill="#64B6AC"/>
<ellipse cx="220.863" cy="104.211" rx="33" ry="100" transform="rotate(10 220.863 104.211)" fill="#173F5F"/>
<ellipse cx="119.863" cy="105.948" rx="33" ry="100" transform="rotate(-10 119.863 105.948)" fill="#173F5F"/>
<path fill-rule="evenodd" clip-rule="evenodd" d="M208.209 203.113C228.605 206.709 252.914 165.533 262.504 111.144C264.153 101.793 265.26 92.6602 265.858 83.9289L317.678 109.839C336.414 119.207 345.783 123.891 348.722 130.269C351.169 135.581 351.169 141.698 348.722 147.009C345.783 153.387 336.414 158.071 317.678 167.44L189.679 231.439C184.344 234.107 181.676 235.441 178.875 235.953C176.497 236.387 174.06 236.387 171.682 235.953C168.881 235.441 166.213 234.107 160.878 231.439L32.8797 167.44C14.1429 158.071 4.77454 153.387 1.83562 147.009C-0.611874 141.698 -0.611874 135.581 1.83562 130.269C4.77454 123.891 14.1429 119.207 32.8798 109.839L84.3037 84.1268C84.905 92.7982 86.0071 101.864 87.6435 111.144C97.2338 165.533 121.543 206.709 141.939 203.113C162.335 199.516 171.094 152.51 161.504 98.1202C158.503 81.0987 154.06 65.3713 148.746 51.9054L160.878 45.8395C166.213 43.1719 168.881 41.8381 171.682 41.3261C174.06 40.8913 176.497 40.8913 178.875 41.3261C181.676 41.8381 184.344 43.1719 189.679 45.8395L201.469 51.7345C196.126 65.2381 191.658 81.0265 188.644 98.1201C179.053 152.51 187.813 199.516 208.209 203.113Z" fill="#173F5F"/>
</svg>


